<?xml version="1.0" encoding="UTF-8"?>
<svg width="210mm" height="210mm" version="1.1" viewBox="0 0 210 210" xmlns="http://www.w3.org/2000/svg">
<defs>
<clipPath id="a">
<path d="M 0,595.28 H 841.89 V 0 H 0 Z"/>
</clipPath>
</defs>
<g transform="translate(0 -3.001)">
<g transform="matrix(.26458 0 0 .26458 -4.6036 108.16)" stroke-width="3.7795">
<path d="m166.7 191.6v62.2c0 4.3 1 7.5 3.1 9.4s5.6 2.9 10.6 2.9h12.1c1.7 0 3 1.3 3 3v21.4c0 1.7-1.3 3-3 3h-17.4c-27.4 0-41.1-13.3-41.1-39.9v-62h-12.3c-1.7 0-3-1.3-3-3v-20.6c0-1.7 1.3-3 3-3h12.3v-28.8c0-1.7 1.3-3 3-3h26.7c1.7 0 3 1.3 3 3v28.8h25.8c1.7 0 3 1.3 3 3v20.7c0 1.7-1.3 3-3 3h-25.8z"/>
<path d="m254.5 168.9c5.9-3.4 12.5-5.3 19.9-5.7 1.7-0.1 3.1 1.3 3.1 3v28c0 1.7-1.3 3-3 3h-5.5c-10.2 0-17.9 2.4-23.1 7.2s-7.8 13.2-7.8 25.1v61c0 1.7-1.3 3-3 3h-26.5c-1.7 0-3-1.3-3-3v-122.5c0-1.7 1.3-3 3-3h26.5c1.7 0 3 1.3 3 3v17c4.2-6.9 9.7-12.2 16.4-16.1z"/>
<path d="m584.2 168.8c7.3-3.9 15.7-5.9 25.2-5.9 11 0 20.9 2.7 29.8 8.1s15.9 13.1 21.1 23.1 7.8 21.5 7.8 34.7-2.6 24.8-7.8 34.9-12.2 18-21.1 23.6-18.8 8.4-29.8 8.4c-9.4 0-17.8-1.9-24.9-5.8-7.2-3.9-13-8.7-17.5-14.6v76.6c0 1.7-1.3 3-3 3h-26.5c-1.7 0-3-1.3-3-3v-183.9c0-1.7 1.3-3 3-3h26.5c1.7 0 3 1.3 3 3v15.6c4-6 9.8-10.9 17.2-14.8zm45.9 39.9c-3.2-5.6-7.4-9.9-12.5-12.9-5.2-2.9-10.8-4.4-16.8-4.4-5.9 0-11.4 1.5-16.6 4.5s-9.4 7.4-12.5 13.1c-3.2 5.7-4.8 12.5-4.8 20.2s1.6 14.5 4.8 20.2 7.3 10.1 12.5 13.1 10.7 4.5 16.6 4.5c6 0 11.6-1.5 16.8-4.6s9.4-7.5 12.5-13.2c3.2-5.7 4.8-12.5 4.8-20.4 0-7.8-1.6-14.4-4.8-20.1z"/>
<path d="m709.8 124.8v165.7c0 1.7-1.3 3-3 3h-26.5c-1.7 0-3-1.3-3-3v-165.7c0-1.7 1.3-3 3-3h26.5c1.7 0 3 1.3 3 3z"/>
<path d="m428.1 261.8c-7.6-0.1-13.8-2.8-18.9-8.2-1.2-1.3-2.3-2.7-3.2-4.3-0.5-0.8-0.6-1.8-0.2-2.7 1.9-5 2.8-10.8 2.8-17.5 0-12.2-3.1-21.6-9.2-28.2s-13.8-9.9-23.1-9.9h-32.6c-9.3 0-17 3.3-23.1 9.9s-9.2 16-9.2 28.2 3.1 21.6 9.4 28.2c6.2 6.5 13.8 9.7 22.9 9.9h21.8c1 0 2 0.6 2.6 1.4 6.2 10 14.5 17.8 24.7 23.4 0.1 0.1 0.2 0.1 0.3 0.2 0.5 0.3 0.5 1.1-0.2 1.3-5.3 1.3-10.8 2-16.6 2h-32.6c-12-0.1-22.9-2.9-32.7-8.2-10.1-5.5-18-13.3-23.8-23.3-5.8-10.1-8.7-21.7-8.7-34.8 0-13.2 2.8-24.8 8.5-34.8 5.6-10.1 13.4-17.8 23.3-23.3s21-8.2 33.4-8.2h32.6c12.4 0 23.5 2.7 33.4 8.2s17.7 13.3 23.3 23.3c5.6 10.1 8.5 21.7 8.5 34.8 0 11.5-2.2 21.8-6.7 30.9-0.5 1-1.5 1.7-2.7 1.7z"/>
<path d="m376.2 196.7c7.6 0.1 13.8 2.8 18.9 8.2 1.2 1.3 2.3 2.7 3.2 4.3 0.5 0.8 0.6 1.8 0.2 2.7-1.9 5-2.8 10.8-2.8 17.5 0 12.2 3.1 21.6 9.2 28.2s13.8 9.9 23.1 9.9h32.6c9.3 0 17-3.3 23.1-9.9s9.2-16 9.2-28.2-3.1-21.6-9.4-28.2c-6.2-6.5-13.8-9.7-22.9-9.9h-21.8c-1 0-2-0.6-2.6-1.4-6.2-10-14.5-17.8-24.7-23.4-0.1-0.1-0.2-0.1-0.3-0.2-0.5-0.3-0.5-1.1 0.2-1.3 5.3-1.3 10.8-2 16.6-2h32.6c12 0.1 22.9 2.9 32.7 8.2 10.1 5.5 18 13.3 23.8 23.3 5.8 10.1 8.7 21.7 8.7 34.8 0 13.2-2.8 24.8-8.5 34.8-5.6 10.1-13.4 17.8-23.3 23.3s-21 8.2-33.4 8.2h-32.6c-12.4 0-23.5-2.7-33.4-8.2s-17.7-13.3-23.3-23.3c-5.6-10.1-8.5-21.7-8.5-34.8 0-11.5 2.2-21.8 6.7-30.9 0.5-1 1.5-1.7 2.7-1.7z"/>
</g>
<g transform="matrix(.35278 0 0 -.35278 -40.595 173.3)" stroke-width="2.8346">
<g transform="matrix(1.169 0 0 1.169 -69.745 -50.037)" clip-path="url(#a)" stroke-width="2.4249">
<g transform="translate(308.95 306.82)">
<path d="m0 0c6.798-10.191 11.104-19.746 12.988-31.311 2.567 0.466 5.117 1.09 7.669 1.633 2.311 0.492 4.779 0.36 7.004 1.133-0.812 5.461-2.099 10.843-3.889 15.781-4.343 11.996-13.343 21.698-19.195 32.897-19.14 36.629-3.515 73.531 29.585 84.943 11.986 4.132 28.319 4.556 39.669-1.532 17.69-9.491-3.286-37.367-12.972-44.808-7.371-5.662-0.1-18.382 7.385-12.633 16.226 12.463 32.76 36.119 24.235 57.454-6.935 17.361-29.76 19.76-45.853 18.617-45.842-3.257-75.299-41.897-61.713-91.278 3.109-11.302 8.68-21.29 15.087-30.896"/>
</g>
<g transform="translate(367.01 276.01)">
<path d="m0 0c-9.03-0.523-18.064-0.957-27.097-1.71-0.894-0.075-1.823-0.19-2.742-0.293-2e-3 0.024-6e-3 0.047-0.01 0.07-0.112-0.016-0.204-0.066-0.329-0.066-0.018 0-0.03 9e-3 -0.047 9e-3 -1.988-0.486-4.049-0.464-6.062-0.905-2.56-0.562-5.127-1.175-7.705-1.642-0.015-2e-3 -0.027 1e-3 -0.039 1e-3 -0.145-0.045-0.294-0.081-0.461-0.094 4e-3 -0.019 8e-3 -0.039 0.01-0.059-19.167-4.813-39.628-14.86-50.141-29.477-5.327-7.409-6.393-15.342-0.155-22.461 7.369-8.404 22.876-5.686 32.137-3.381 19.416 4.832 29.922 20.639 32.562 38.932-4.308-0.41-8.749-1.748-12.891-2.981-0.163-0.047-0.31-0.055-0.461-0.066-0.098-0.059-0.198-0.113-0.339-0.133-0.555-0.079-1.059-0.297-1.594-0.445-1.1-4.335-2.942-8.436-5.891-11.996-3.881-4.686-9.599-7.422-15.276-9.202-3.119-0.978-20.682-4.513-16.988 2.22 6.024 10.976 24.653 18.251 35.587 22.42 1.156 0.441 2.319 0.837 3.487 1.212-2e-3 -0.014-4e-3 -0.029-7e-3 -0.045 0.07 0.015 0.129 0.043 0.209 0.043 4e-3 0 6e-3 -2e-3 8e-3 -2e-3 0.093 0.036 0.191 0.062 0.297 0.069 4.216 1.253 8.582 2.461 12.953 2.966 0.13 0.063 0.281 0.103 0.459 0.103 7e-3 0 0.011-5e-3 0.02-5e-3 0.094 0.045 0.188 0.09 0.306 0.104 0.202 0.023 0.406 0.043 0.608 0.063 0 5e-3 2e-3 9e-3 2e-3 0.013 7.263 1.019 14.64 1.355 22.007 1.648"/>
</g>
<g transform="translate(464.03 259.34)">
<path d="m0 0c0.206 4.988 1.414 9.759 2.157 14.655-9.828 0.376-19.951 1.331-29.418 3.085 8e-3 0.014 0.014 0.029 0.023 0.043-0.137 0.035-0.276 0.06-0.41 0.094-1.097 0.092-2.191 0.217-3.271 0.41-0.71 0.01-1.408 0.082-2.096 0.205-2.727 0.133-5.468 0.18-8.17 0.375-0.019-2e-3 -0.032-0.012-0.052-0.012-0.514-7e-3 -1.015-0.013-1.525 0.043-0.061 7e-3 -0.104 0.038-0.159 0.051-4e-3 -0.012-0.011-0.023-0.017-0.033-10.548 0.457-13.655 0.521-25.703 0.424-0.316-2e-3 -0.829-0.02-1.426-0.045l-8.04-15.397c9.367 0.202 17.85 0.028 27.313 4e-3 -0.011-0.017-0.019-0.033-0.026-0.049 0.042 3e-3 0.075 0.023 0.122 0.023 5.256-0.06 10.927 0.251 16.085-0.855 0.016-2e-3 0.024-0.013 0.039-0.017l4e-3 8e-3c9.787-1.477 18.63-2.346 30.04-3.264 1.514-0.121 3.04-0.045 4.562 0.056-4e-3 0.071-0.035 0.122-0.032 0.196"/>
</g>
<g transform="translate(544.95 268.93)">
<path d="m0 0c-7.918-7.872-18.521-12.78-28.929-16.436-7.297-2.563-25.509-8.585-31.391-0.56-1.768 2.407-2.578 5.372-2.666 8.604 0.063 0.011 0.125 0.029 0.186 0.04-0.02 0.2-0.057 0.393-0.02 0.615 0.837 5.117 1.773 10.428 3.913 15.18-0.015-4e-3 -0.028-7e-3 -0.041-0.012 0.116 0.235 0.24 0.466 0.361 0.7 0.359 0.746 0.759 1.473 1.188 2.183 4.259 7.369 10.294 13.523 15.762 15.293 9.907 3.204-1.009-10.401-3.476-12.183-2.417-1.744-5.152-3.031-7.991-4.096-3.448-4.812-4.524-11.001-5.457-16.764 6.324 1.492 12.482 3.704 18.31 6.698 9.283 4.77 21.067 18.039 17.179 29.538-3.841 11.369-14.745 13.409-25.258 10.009-9.696-3.136-16.481-12.545-21.148-21.068-2.001-3.657-3.833-8.104-5.16-12.845-8e-3 0-0.015 1e-3 -0.024 1e-3 5e-3 -0.127 0.041-0.241 0.02-0.377-0.677-4.721-1.904-9.321-2.102-14.12 0-0.013-8e-3 -0.023-8e-3 -0.036 0.034-10.278 3.862-19.694 14.746-23.544 22.858-8.084 56.15 6.725 72.351 22.832 6.697 6.66-3.65 17.004-10.345 10.348"/>
</g>
<g transform="translate(412.09 259.58)">
<path d="m0 0c-0.148-2e-3 -0.275 0.025-0.39 0.07-0.149-0.029-0.304-0.05-0.459-0.057-0.132-0.243-0.261-0.484-0.406-0.738-6.185-10.91-12.235-21.865-14.774-34.261-1.886-9.209 12.216-13.131 14.108-3.891 2.54 12.398 8.916 23.033 15.085 33.916 0.992 1.753 1.625 2.875 2.26 4.044-4.518 1.855-10.78 1.003-15.424 0.917"/>
</g>
<g transform="translate(460.17 325.9)">
<path d="m0 0c4.65 10.464 9.376 20.891 14.75 31.017 4.419 8.329-8.21 15.721-12.635 7.385-6.524-12.293-11.851-24.239-17.522-36.936-0.031-0.385-1.096-2.172-1.592-3.46-0.951-2.447-0.749-1.886-1.945-5.052-1.118-2.962-0.849-1.84-2.174-4.394 0.032 0-1.642-3.312-1.609-3.312-3.031-6.581-6.152-13.123-9.503-19.559-1.333-2.563-3.14-6.073-4.765-9.248 5.242-0.36 10.602-0.073 15.753-1.131 1.208 2.257 2.49 4.616 3.451 6.463 4.018 7.718 7.675 15.602 11.239 23.527"/>
</g>
<g transform="translate(418.76 330.53)">
<path d="m0 0c6.706 12.499 12.893 25.25 17.877 38.581 3.315 8.856-10.834 12.644-14.108 3.891-5.456-14.588-12.344-28.469-19.778-42.079 5.346-0.141 10.657-0.47 16.009-0.393"/>
</g>
<g transform="translate(390.33 308.98)">
<path d="m0 0c-6.16-10.635-12.372-21.24-18.218-32.023h-2e-3c-3e-3 -8e-3 -7e-3 -0.015-9e-3 -0.021-5e-3 -0.02-0.015-0.035-0.022-0.052-8e-3 -0.017-0.014-0.036-0.022-0.053-0.019-0.087-0.045-0.167-0.084-0.247-0.01-0.037-0.012-0.072-0.031-0.11-2.634-5.201-5.378-10.327-7.968-15.546-0.021-0.042-0.096-0.133-0.18-0.229-0.043-0.115-0.105-0.221-0.186-0.312-0.043-0.1-0.075-0.202-0.149-0.283-5.45-11.234-10.317-22.754-14.086-34.811-2.823-9.031 11.304-12.863 14.108-3.891 4.516 14.442 10.715 28.338 17.533 41.692 0.02 1e-3 0.041 1e-3 0.059 2e-3 0.047 0.15 0.128 0.283 0.236 0.396v2e-3c1.324 2.424 2.64 4.74 3.785 7.268 1.082 2.39 2.374 5.041 3.793 7.232 0.05 0.079 0.11 0.141 0.165 0.209 0.02 0.058 0.061 0.105 0.09 0.158h-2e-3c5.523 9.945 11.295 19.772 16.995 29.64-4.456 0.346-8.986 0.399-13.44 0.669"/>
</g>
<g transform="translate(401.28 326.79)">
<path d="m0 0c-0.27 5e-3 -0.492 0.078-0.709 0.157l-0.037-0.067c-8.209 0.482-16.409 1.139-24.592 2.029-9.373 1.019-9.275-13.622 0-14.632 5.483-0.596 10.974-1.058 16.471-1.462 0.099 7e-3 2.616-0.28 2.726-0.286 4.969-0.301 1.154-0.03 6.37-0.359 8.369-0.53 6.66-0.213 6.872-0.31 8.379-0.376 16.221-0.501 24.611-0.585l6.478 14.53c-7.688 0.026-15.378 0.127-23.059 0.376"/>
</g>
<g transform="translate(472.09 326.12)">
<path d="m0 0c-2.301-0.05-4.603-0.086-6.903-0.127-2.374-4.862-4.701-9.748-6.879-14.72 4.594 0.058 9.189 0.116 13.782 0.216 9.422 0.204 9.44 14.836 0 14.631"/>
</g>
<g transform="translate(413.86 264.35)">
<path d="M 0,0 C 0.234,0.449 0.431,0.82 0.449,0.82 0.302,0.545 0.146,0.275 0,0" fill="#231f20"/>
</g>
</g>
</g>
<path d="m122.95 111.82-29.558 32.379c-0.30325 0.33219-0.78918 0.35432-1.1214 0.0511l-5.1783-4.7271c-0.33219-0.30326-0.35432-0.78918-0.05107-1.1214l29.558-32.379c0.30324-0.3322 0.78918-0.35433 1.1214-0.0511l5.1783 4.7271c0.33219 0.30325 0.35433 0.78918 0.0511 1.1214z"/>
<path transform="scale(.26458)" d="m350.92 399.71c-0.75936-0.0346-1.5324 0.23166-2.1602 0.80469l-19.57 17.865c-1.2555 1.1461-1.3394 2.9828-0.19336 4.2383l111.71 122.38c1.1461 1.2555 2.9828 1.3394 4.2383 0.19336l19.57-17.867c1.2555-1.1462 1.3394-2.9828 0.19336-4.2383l-111.71-122.38c-0.57305-0.62778-1.3188-0.9615-2.0781-0.9961z" stroke-width="3.7795"/>
</g>
</svg>
